Coordinates
version=1
nRows=5
nColumns=63
inDegrees=yes

Units are S.I. units (second, meters, Newtons, ...)
If the header above contains a line with 'inDegrees', this indicates whether rotational values are in degrees (yes) or radians (no).

endheader
time	pelvis_tilt	pelvis_list	pelvis_rotation	pelvis_tx	pelvis_ty	pelvis_tz	hip_flexion_r	hip_adduction_r	hip_rotation_r	knee_angle_r	knee_angle_r_beta	ankle_angle_r	subtalar_angle_r	mtp_angle_r	hip_flexion_l	hip_adduction_l	hip_rotation_l	knee_angle_l	knee_angle_l_beta	ankle_angle_l	subtalar_angle_l	mtp_angle_l	L5_S1_Flex_Ext	L5_S1_Lat_Bending	L5_S1_axial_rotation	L4_L5_Flex_Ext	L4_L5_Lat_Bending	L4_L5_axial_rotation	L3_L4_Flex_Ext	L3_L4_Lat_Bending	L3_L4_axial_rotation	L2_L3_Flex_Ext	L2_L3_Lat_Bending	L2_L3_axial_rotation	L1_L2_Flex_Ext	L1_L2_Lat_Bending	L1_L2_axial_rotation	L1_T12_Flex_Ext	L1_T12_Lat_Bending	L1_T12_axial_rotation	Abs_r3	Abs_r2	Abs_r1	Abs_t1	Abs_t2	neck_flexion	neck_bending	neck_rotation	arm_flex_r	arm_add_r	arm_rot_r	elbow_flex_r	pro_sup_r	wrist_flex_r	wrist_dev_r	arm_flex_l	arm_add_l	arm_rot_l	elbow_flex_l	pro_sup_l	wrist_flex_l	wrist_dev_l
      2.47826087	      1.02435507	     -7.11446613	     86.06634425	      0.21196328	      0.72618709	      0.85011593	     18.84924245	      1.90401827	      6.51949941	     10.12654160	      0.17674149	     30.45655907	      0.20873493	      0.00000000	     16.86182629	     -2.17569030	    -14.67983128	     12.62173872	      0.22029090	     32.98237854	     11.51803351	      0.00000000	      0.06614104	     -0.00666963	     -1.97434909	      0.12283052	     -0.00887061	     -2.09774591	      0.10866311	     -0.01621654	     -2.09774591	      0.07559259	     -0.01621654	     -1.72755546	      0.06141857	     -0.01360071	     -1.60415864	      0.03779299	     -0.01033126	     -1.48076182	      0.47243880	     -0.07544822	    -10.98073735	      0.00000000	      0.00000000	     27.97102428	     -2.60296157	     14.68913778	     21.71064468	     -2.95007657	     20.87591397	     89.98288848	     80.37361512	     -6.66988422	     10.53014738	     13.79241695	     -6.51422136	     15.33574477	    101.12647998	     70.56041146	    -20.23219411	     16.34184318
      2.50000000	      1.39311024	     -7.06550299	     86.26342286	      0.21232167	      0.72570179	      0.85111901	     18.68817549	      2.39718350	      8.18588118	      9.50146096	      0.16583178	     29.63998888	     -2.55306670	      0.00000000	     17.03893601	     -2.59004192	    -15.13962422	     12.94794302	      0.22598424	     33.19385734	     11.73092067	      0.00000000	      0.05470926	      0.01324652	     -1.88525024	      0.10160057	      0.01761787	     -2.00307839	      0.08988185	      0.03220759	     -2.00307839	      0.06252721	      0.03220759	     -1.64959396	      0.05080302	      0.02701231	     -1.53176582	      0.03126087	      0.02051886	     -1.41393768	      0.39078278	      0.14984730	    -10.48519629	      0.00000000	      0.00000000	     27.78650036	     -3.76955742	     15.23928068	     21.07876637	     -3.64886127	     21.61115491	     89.77743925	     81.03212500	     -5.12074029	     12.30483109	     13.35342525	     -4.98940268	     12.39755400	    100.29503634	     61.72403330	    -24.36787392	     20.99353740
      2.52173913	      1.77434342	     -6.94087099	     86.55300365	      0.21222241	      0.72517744	      0.85215607	     18.52746299	      2.71631683	      8.34376648	      9.01423844	      0.15732814	     29.49513281	     -3.18371266	      0.00000000	     17.15340075	     -2.95139362	    -15.32274085	     13.24289019	      0.23113204	     33.44451283	     11.67470953	      0.00000000	      0.05091290	      0.04044993	     -1.77883550	      0.09455034	      0.05379840	     -1.89001272	      0.08364480	      0.09834995	     -1.89001272	      0.05818835	      0.09834995	     -1.55648106	      0.04727772	      0.08248549	     -1.44530384	      0.02909163	      0.06265694	     -1.33412663	      0.36366573	      0.45757766	     -9.89334940	      0.00000000	      0.00000000	     27.49309504	     -4.40645629	     16.47994854	     20.63058946	     -4.29693783	     22.09486354	     89.00760908	     81.43363767	     -3.68796860	     13.86774388	     13.56094860	     -3.24669320	      9.16889541	     97.82589987	     57.86916715	    -25.80349514	     23.83442819
      2.54347826	      1.94404203	     -6.79391124	     86.92134780	      0.21207257	      0.72472659	      0.85337103	     18.40934235	      2.76913941	      8.28439206	      8.64340902	      0.15085595	     29.65030629	     -3.36433547	      0.00000000	     17.23761585	     -3.06257489	    -15.42237817	     13.41815203	      0.23419093	     33.63331216	     11.64943115	      0.00000000	      0.06975689	      0.03545939	     -1.62756453	      0.12954552	      0.04716099	     -1.72928731	      0.11460359	      0.08621596	     -1.72928731	      0.07972515	      0.08621596	     -1.42411896	      0.06477625	      0.07230879	     -1.32239618	      0.03985909	      0.05492660	     -1.22067340	      0.49826649	      0.40112372	     -9.05202563	      0.00000000	      0.00000000	     26.98026526	     -4.55926404	     17.38148927	     20.65373620	     -4.64742140	     22.39863977	     87.09763965	     81.77383120	     -3.52613355	     14.24265323	     14.55658815	     -2.15846629	      7.55564862	     93.93538075	     57.50113861	    -26.27168864	     23.81758650
      2.56521739	      2.60812512	     -6.24555472	     87.22403672	      0.21132726	      0.72488000	      0.85396211	     17.59255783	      3.28234922	      8.51345480	      7.91429521	      0.13813051	     29.67393329	     -3.57374686	      0.00000000	     16.81770585	     -3.65837757	    -15.44693323	     13.57981361	      0.23701246	     34.35031918	     11.81614345	      0.00000000	      0.03114046	      0.10543352	     -1.38834632	      0.05783095	      0.14022658	     -1.47511797	      0.05116066	      0.25635106	     -1.47511797	      0.03559043	      0.25635106	     -1.21480303	      0.02891703	      0.21500003	     -1.12803139	      0.01779366	      0.16331652	     -1.04125974	      0.22243318	      1.19268505	     -7.72156574	      0.00000000	      0.00000000	     26.09491100	     -4.37890032	     19.41759201	     21.45271467	     -5.07201113	     22.32185783	     84.05297307	     82.99432431	     -3.26844268	     13.87466478	     15.94862129	     -1.39090661	      7.64394423	     88.81227404	     58.60464738	    -24.77912820	     21.87952808
